<svg xmlns="http://www.w3.org/2000/svg" version="1.1" viewBox="-0.4 0.2 842.3 595.7">
  <!-- Generator: Adobe Illustrator 29.0.1, SVG Export Plug-In . SVG Version: 2.1.0 Build 192)  -->
  <defs>
    <style>
      .st0 {
        fill: none;
        stroke: #131718;
        stroke-miterlimit: 10;
        stroke-width: .4px;
      }

      .st1 {
        fill: #131718;
      }

      .st2 {
        fill: #221f20;
      }

      .st3 {
        fill: #fff;
      }
    </style>
  </defs>
  <g id="Calque_2">
    <path class="st1" d="M404.7,381.7v-9.6h2.7v14.3h-2.2l-7.6-9.5v9.5h-2.7v-14.3h2.2l7.6,9.6Z"/>
    <path class="st1" d="M404.7,396v-9.6h2.7v14.3h-2.2l-7.6-9.5v9.5h-2.7v-14.3h2.2l7.6,9.6Z"/>
    <path class="st1" d="M424.3,204.9v-9.6h2.7v14.3h-2.2l-7.6-9.5v9.5h-2.7v-14.3h2.2l7.6,9.6Z"/>
    <path class="st1" d="M424.3,219.3v-9.6h2.7v14.3h-2.2l-7.6-9.5v9.5h-2.7v-14.3h2.2l7.6,9.6Z"/>
    <path class="st1" d="M353.7,360.3h-9.6v-2.7h14.3v2.2l-9.5,7.6h9.5v2.7h-14.3v-2.2l9.6-7.6Z"/>
    <path class="st1" d="M339.4,360.3h-9.6v-2.7h14.3v2.2l-9.5,7.6h9.5v2.7h-14.3v-2.2l9.6-7.6Z"/>
    <path class="st1" d="M492.7,363.3h-9.6v-2.7h14.3v2.2l-9.5,7.6h9.5v2.7h-14.3v-2.2l9.6-7.6Z"/>
    <path class="st1" d="M507,363.3h-9.6v-2.7h14.3v2.2l-9.5,7.6h9.5v2.7h-14.3v-2.2l9.6-7.6Z"/>
  </g>
  <g id="Calque_3">
    <rect class="st3" x="329.8" y="195.3" width="182" height="205.4"/>
  </g>
  <g id="Calque_1">
    <g>
      <path class="st2" d="M439.7,267.9v-1.8h-3v-24.7c0-8.1-6.1-14.7-13.9-15.5l-2-2-2.2,2.2c-7.4,1.3-13.8,7.8-13.8,15.3h0s0,30.9,0,30.9h0v.2c0,.2,0,.3,0,.5.2,2.3,2.2,4.2,4.5,4.2s0,0,0,0c0,0,0,0,0,0h1.4s0,0,0,0h3.1s0,46.1,0,46.1c-4.4-2.3-7.3-6.9-7.3-12.2v-27.2h0s-4.8,0-4.8,0v1.8h3v25.4c0,8.1,6.1,14.7,13.9,15.5l2,2,2.2-2.2c7.4-1.3,13.8-7.8,13.8-15.3v-30.9s0,0,0,0h0c0-.3,0-.4,0-.6-.2-2.3-2.2-4.2-4.5-4.2s0,0,0,0c0,0,0,0,0,0h-4.4s0-33.9,0-33.9c0-3.7-3.1-6.8-6.8-6.8s-6.7,3.1-6.7,6.8v33.9h-4.5c-1.6,0-2.9-1.3-2.9-2.9v-30.4s0-.5,0-.5c0-7.4,7.2-13.7,14.6-13.7s13.6,6.2,13.6,13.7v26.5s0,0,0,0h0s4.8,0,4.8,0ZM427.5,277.1h4.5c1.6,0,2.9,1.3,2.9,2.9v31c0,4.9-3.1,9.3-7.3,11.7v-45.6ZM415.9,241.4c0-2.6,2.3-4.9,4.8-4.9s4.9,2.3,4.9,4.9v33.9h-9.8v-33.9ZM415.9,277.1h9.8v46.5c-1.7.7-3.5,1.1-5.4,1.1s-3-.3-4.4-.7v-46.9Z"/>
      <path class="st2" d="M484.2,359.3c0-1,.6-1.7,1.8-1.7s1.8.7,1.8,1.7-.6,1.6-1.8,1.6-1.8-.7-1.8-1.6ZM487.4,359.3c0-.8-.5-1.4-1.4-1.4s-1.4.5-1.4,1.4.5,1.3,1.4,1.3,1.4-.5,1.4-1.3ZM485.3,360v-1.4h.9c.4,0,.6.2.6.5s-.1.4-.3.5l.3.4h-.4l-.3-.4h-.4v.4h-.4ZM485.7,359.3h.5c.2,0,.3,0,.3-.2s0-.2-.3-.2h-.5v.4Z"/>
      <g>
        <path class="st2" d="M368,361.4c-.5-.8-1.8-1.6-3.4-1.6s-3,.9-3,1.8c0,1.2,1.5,1.6,3.2,1.8,3,.4,5.8,1.1,5.8,4.6s-2.8,4.6-6,4.6-5.2-.9-6.2-3.5l2.2-1.2c.7,1.6,2.3,2.3,4,2.3s3.3-.6,3.3-2.1-1.4-1.9-3.3-2.1c-2.9-.3-5.6-1.1-5.6-4.3s2.9-4,5.5-4,4.5.6,5.6,2.8l-2.1,1.1Z"/>
        <path class="st2" d="M387.9,372.1h-10.7v-14.3h10.7v2.6h-8v3.3h7.7v2.5h-7.7v3.2h8v2.7Z"/>
        <path class="st2" d="M404.7,367.4v-9.6h2.7v14.3h-2.2l-7.6-9.5v9.5h-2.7v-14.3h2.2l7.6,9.6Z"/>
        <path class="st2" d="M418,360.2h-4.5v-2.5h11.8v2.5h-4.5v11.9h-2.7v-11.9Z"/>
        <path class="st2" d="M444.9,365c0,3.7-2.3,7.4-7.3,7.4s-7.4-3.6-7.4-7.4,3.3-7.5,7.4-7.5c4.9,0,7.3,3.8,7.3,7.5ZM437.6,369.9c3.4,0,4.6-2.5,4.7-4.9,0-2.4-1.3-5-4.6-5.1-3,0-4.9,2.3-4.8,5.1,0,2.4,1.3,4.9,4.7,4.9Z"/>
        <path class="st2" d="M460.1,361.4c-.5-.8-1.8-1.6-3.4-1.6s-3,.9-3,1.8c0,1.2,1.5,1.6,3.2,1.8,3,.4,5.8,1.1,5.8,4.6s-2.8,4.6-6,4.6-5.2-.9-6.2-3.5l2.2-1.2c.7,1.6,2.3,2.3,4,2.3s3.3-.6,3.3-2.1-1.4-1.9-3.3-2.1c-2.9-.3-5.6-1.1-5.6-4.3s2.9-4,5.5-4,4.5.6,5.6,2.8l-2.1,1.1Z"/>
        <path class="st2" d="M479,369.4h-7.5l-1.2,2.7h-2.9l6.4-14.3h2.9l6.4,14.3h-2.9l-1.2-2.7ZM475.2,360.8l-2.7,6.1h5.3l-2.7-6.1Z"/>
      </g>
    </g>
    <rect class="st0" x="-.2" y=".4" width="841.9" height="595.3"/>
  </g>
</svg>